<?xml version="1.0" encoding="UTF-8"?>
<!DOCTYPE svg PUBLIC "-//W3C//DTD SVG 1.1//EN" "http://www.w3.org/Graphics/SVG/1.1/DTD/svg11.dtd">
<!-- Creator: CorelDRAW X7 -->
<svg xmlns="http://www.w3.org/2000/svg" xml:space="preserve" width="377.832mm" height="226.484mm" version="1.1" style="shape-rendering:geometricPrecision; text-rendering:geometricPrecision; image-rendering:optimizeQuality; fill-rule:evenodd; clip-rule:evenodd"
viewBox="0 0 30138 18065"
 xmlns:xlink="http://www.w3.org/1999/xlink">
 <defs>
  <style type="text/css">
   <![CDATA[
    .fil0 {fill:none}
   ]]>
  </style>
 </defs>
 <g id="Слой_x0020_1">
  <metadata id="CorelCorpID_0Corel-Layer"/>
  <g id="_773338048">
   <polygon class="fil0" points="1135,6971 0,2136 9016,0 12051,692 12190,3064 11810,3199 11523,3069 11523,2900 11249,2984 10898,2912 10898,2697 10523,2820 10345,2739 10278,2760 10274,2841 9957,2760 9691,2857 9527,2777 9527,2917 9286,3001 9151,2921 9151,3060 8771,3128 8248,2907 8248,2662 7486,2422 7005,2582 6188,2276 2699,3270 3532,7829 "/>
   <polygon class="fil0" points="3577,8030 12094,11845 12424,11693 12145,6350 15222,5024 14197,4661 14197,4319 14119,4299 13825,4450 13445,4303 13441,4104 13369,4096 13065,4227 12749,4087 12749,3551 12375,3440 12375,3333 12190,3229 12190,3064 11810,3199 11523,3069 11523,2900 11249,2984 10898,2912 10898,2697 10523,2820 10345,2739 10278,2760 10274,2841 9957,2760 9691,2857 9527,2777 9527,2917 9286,3001 9151,2921 9151,3060 8771,3128 8248,2907 8248,2662 7486,2422 7005,2582 6188,2276 2699,3270 3532,7829 "/>
   <polygon class="fil0" points="21368,5264 21368,5137 21448,5055 21448,4797 21626,4793 21706,3947 22208,3681 22208,3575 22259,3523 22259,3293 22641,3364 22757,3290 22835,3297 22848,3383 23312,3155 24150,3295 24281,3243 24785,3365 24948,3245 25040,3245 25040,3418 25872,3602 26056,3464 26179,3497 26179,3684 26780,3798 26780,3887 28010,4150 28031,4226 28941,4416 28215,8150 28152,8129 27869,8349 26979,8053 26979,7800 26894,7788 26641,7978 25856,7691 25856,7536 24984,7258 25035,6789 20762,5597 "/>
   <path class="fil0" d="M15222 5024l398 -162 1030 278 334 -171 111 9 -2 234 517 158 281 -159 1175 365 0 353 356 116 528 0 812 -448 4273 1192 -51 469 872 278 0 155 785 287 253 -190 85 12 0 253 890 296 283 -220 63 21 42 16 -93 393 1971 589 -57 371 60 2 -87 376 82 6 -4 43 -154 175 -74 498 126 12 -719 3285c0,0 -84,178 -114,397 -29,220 -25,304 -25,304l-228 325 -51 84 -20 121 -107 0 -260 314 -34 173 -90 -31 -347 393 -64 284 -110 -30 -303 406 0 160 -131 -30 -317 389 -732 890 -2012 -919 -132 142 0 -202 -1071 -489 -140 112 0 -176 -2514 -1148 -116 62 0 -115 -847 -387 -267 72 0 -194 -1664 -760 -170 45 0 -123 -793 -362 -140 38 0 -102 -1875 -856 -176 0 0 -81 -656 -299 -184 0 0 -84 -1194 -546 -279 -5343 3077 -1326z"/>
  </g>
 </g>
</svg>
